<svg xmlns="http://www.w3.org/2000/svg" xmlns:xlink="http://www.w3.org/1999/xlink" viewBox="0 0 736.08 206.79"><defs><style>.cls-1{fill:url(#linear-gradient);}.cls-2{fill:url(#linear-gradient-2);}.cls-3{fill:url(#linear-gradient-3);}.cls-4{fill:url(#linear-gradient-4);}</style><linearGradient id="linear-gradient" x1="-2.17" y1="-185.2" x2="733.91" y2="-185.2" gradientTransform="matrix(1, 0, 0, -1, 2.17, -81.78)" gradientUnits="userSpaceOnUse"><stop offset="0.4" stop-color="#caa079"/><stop offset="1" stop-color="#523642"/></linearGradient><linearGradient id="linear-gradient-2" x1="-2.17" y1="-184.1" x2="733.91" y2="-184.1" xlink:href="#linear-gradient"/><linearGradient id="linear-gradient-3" x1="-2.17" y1="-184.22" x2="733.91" y2="-184.22" xlink:href="#linear-gradient"/><linearGradient id="linear-gradient-4" x1="-2.17" y1="-182.59" x2="733.91" y2="-182.59" xlink:href="#linear-gradient"/></defs><g id="Layer_2" data-name="Layer 2"><g id="Layer_1-2" data-name="Layer 1"><g id="Layer_2-2" data-name="Layer 2"><g id="Layer_1-2-2" data-name="Layer 1-2"><path class="cls-1" d="M42.92,108.32Q30.32,95.57,25.2,85.69a45.2,45.2,0,0,1-5.13-21.16A55.1,55.1,0,0,1,30.4,32.59,72.89,72.89,0,0,1,58.08,8.86,81.28,81.28,0,0,1,95.36.07q22.56,0,34.72,9.38T142.24,36a38,38,0,0,1-4.4,17,61.76,61.76,0,0,1-12.16,16.36,52.4,52.4,0,0,1-9.81,8Q111.33,80,108.25,80c-2.54,0-3.81-2-3.81-5.86,0,.1.2-1.41.59-4.54a97.42,97.42,0,0,0,.88-12.3A54,54,0,0,0,103.64,42a45.27,45.27,0,0,0-5.86-12.89q-3.6-5.2-6.81-5.2-1.62,0-3.67,2.49a28.42,28.42,0,0,0-6.15,10.2A33.66,33.66,0,0,0,79,48a38.63,38.63,0,0,0,1.87,12.25,37.94,37.94,0,0,0,6.58,11.5A114.73,114.73,0,0,0,99.88,84.59a170.46,170.46,0,0,1,19,19.47,61,61,0,0,1,9.74,16.62,51.1,51.1,0,0,1,3.08,18,65.82,65.82,0,0,1-8.94,32.81,73.44,73.44,0,0,1-23.65,25.56q-14.73,9.72-30.4,9.74a70.18,70.18,0,0,1-29.15-6.44A95.06,95.06,0,0,1,12.9,181.89Q0,169.1,0,159.32q0-6,5.71-11.72a52,52,0,0,1,14.43-10q8.57-4.11,14.43-4.1a9.47,9.47,0,0,1,5.71,1.68,13.92,13.92,0,0,1,4.18,5.72,67,67,0,0,1,3.59,10.91,93,93,0,0,0,5.12,14.58,41.5,41.5,0,0,0,6.6,9.44q4.4,4.39,9.22,4.4a10.83,10.83,0,0,0,9.23-4.62q3.38-4.61,3.37-12.68,0-12.6-8.92-25.21a46,46,0,0,0-5.77-7.55q-3.15-3.3-13.71-12.65Q50,114.88,42.92,108.32Z"/><path class="cls-2" d="M223.14,136.15l-3,9.66c-.5,2.15-1.28,5-2.37,8.64q-8,27.68-13.09,36.32a44.16,44.16,0,0,1-3.8,5.13,33.16,33.16,0,0,1-23.12,8.65q-10.83,0-17.42-4.76t-6.58-12.23q0-5.42,3.82-19.4t8.52-26.59q-11.46-2.19-11.46-9.81,0-5.43,3.58-12.24a50.57,50.57,0,0,1,9-12.24q5.42-5.41,10.54-7Q180,94,186.12,73.77,200.06,30,208.7,15a88.62,88.62,0,0,1,6-7.76Q222.32.1,234.19.09a31.06,31.06,0,0,1,13,2.57,20,20,0,0,1,8.64,7,18.27,18.27,0,0,1,3,10.48q0,8.34-20.95,70.16c-.2.68-.51,1.68-1,3s-.86,2.52-1.25,3.59l-.58,1.17,54-1.17,2.64-9.23q4.53-14.94,9.52-29.52t8.57-23.43A148.23,148.23,0,0,1,317,19.11,48.17,48.17,0,0,1,324,9Q331.61.64,345,.65q22.86,0,22.86,19.77,0,18.6-19.92,67.88-2.94,7.26-3.53,8.88l1-.22a5.61,5.61,0,0,1,1-.07q8,0,12.65,2.86t4.66,7.7q0,3.21-3.94,9.24a73.45,73.45,0,0,1-8.39,10.63,39.82,39.82,0,0,1-7.65,6.53q-3.07,1.6-12,3.37l-.59,2.34c-.69,1.47-1.72,4.15-3.09,8.06q-3.07,8.49-6.32,17T316.34,178a62.71,62.71,0,0,1-4.18,8,28.31,28.31,0,0,1-5.72,6,62.79,62.79,0,0,1-16.14,8.85q-9.1,3.42-15.11,3.44-6.9,0-10.86-3.37t-4-9.52q0-10.54,11-43.8,2.6-7.32,3.62-10.69Z"/><path class="cls-3" d="M467.72,43A141.35,141.35,0,0,0,453,59.61q-4.63,6.51-9.88,18.71a78.63,78.63,0,0,0-5.72,18.61q-2.19,8.64-2.19,22.26,0,19.2,3.66,32t10.84,19.34A24.86,24.86,0,0,0,467,177q8.21,0,16.77-6a65.07,65.07,0,0,0,15.53-15.75,87.42,87.42,0,0,0,11.21-21.75,69.32,69.32,0,0,0,4.25-23.15q0-20.07-13.77-41.89-5.13-8.79-5.13-12,0-6,6.59-12a87.55,87.55,0,0,1,17.14-12.75q9.67-5.57,15.23-5.56a17.3,17.3,0,0,1,6.82,1.53,14,14,0,0,1,5.49,3.89q4.68,4.83,7.76,17.79A118.94,118.94,0,0,1,558,76.82q0,34.58-14.14,63.79T505.48,186.9Q481.24,204,453,204a91,91,0,0,1-32.23-6q-16-6-25.92-16.11Q378,165,378,137.77q0-15.84,6.15-33.55A162.26,162.26,0,0,1,401,69.72,177,177,0,0,1,425.9,39,129.41,129.41,0,0,1,455,17a143.18,143.18,0,0,1,29.3-11.71Q500,.92,511.82.92q16.7,0,16.7,5.13c0,1.37-1.18,3.47-3.52,6.3a54.88,54.88,0,0,1-11.21,8.49q-4.75,2.49-15.6,5.57-11.71,3.51-17,6.37T467.72,43Z"/><path class="cls-4" d="M616.41,34.49l2.05-5.13a36,36,0,0,0-8.21.8,62.92,62.92,0,0,0-7.91,2.57q-5.57,2-7.61,2a5.09,5.09,0,0,1-4.1-1.91A7,7,0,0,1,589,28.14q0-5.73,4.62-11.79A24.79,24.79,0,0,1,605,7.78q8.79-3.53,22.63-5.64A180.46,180.46,0,0,1,655.08,0a155.75,155.75,0,0,1,27.61,2.2,78.25,78.25,0,0,1,21.75,7,64.71,64.71,0,0,1,16.7,12,50.11,50.11,0,0,1,11.06,16.7,53.06,53.06,0,0,1,3.88,20.22,71.24,71.24,0,0,1-3.88,21.68,112.51,112.51,0,0,1-10.76,23.51,94.82,94.82,0,0,1-15.09,19.34,80.77,80.77,0,0,1-24.1,15.6q-14.58,6.38-26.59,6.37a21,21,0,0,1-9-1.83c-2.59-1.22-3.88-2.71-3.89-4.47a11.66,11.66,0,0,1,3.08-7.69q3.07-3.58,11.28-8.86A74.22,74.22,0,0,0,670.31,112a54.1,54.1,0,0,0,10.77-17.14q3.43-9.08,3.44-21.68,0-12-4.1-20.36T667.1,37.85l-20.06,65-3.66,11.47q-2.36,6.75-6.3,23.15-7.19,28.26-13.48,39.25a52.09,52.09,0,0,1-7.18,9.53A66.93,66.93,0,0,1,598.62,197q-10.77,4.62-18.54,4.61a11,11,0,0,1-8.13-3q-3-3-3-8.42,0-6,3-17.58t12.38-41.45L587,123l2.79-8.93Z"/></g></g></g></g></svg>