<?xml version="1.0" encoding="utf-8"?>
<!-- Generator: Adobe Illustrator 25.0.0, SVG Export Plug-In . SVG Version: 6.00 Build 0)  -->
<svg version="1.1" id="Layer_1" xmlns="http://www.w3.org/2000/svg" xmlns:xlink="http://www.w3.org/1999/xlink" x="0px" y="0px"
	 viewBox="0 0 1623.8 697.2" style="enable-background:new 0 0 1623.8 697.2;" xml:space="preserve">
<style type="text/css">
	.st0{clip-path:url(#SVGID_2_);}
	.st1{fill:url(#SVGID_3_);}
	.st2{enable-background:new    ;}
	.st3{fill:#523642;}
	.st4{fill:url(#SVGID_4_);}
	.st5{fill:url(#SVGID_5_);}
	.st6{fill:url(#SVGID_6_);}
</style>
<g id="Layer_2_1_">
	<g id="Layer_1-2">
		<g>
			<defs>
				<path id="SVGID_1_" d="M483.7,489.3c-6.8,12.7-15.3,24.6-25.2,35.1c3.2,1.9,6.4,3.7,9.6,5.5c39.5,21.7,82.8,35,119.5,31.8
					c42-4.6,77.7-32.6,92.2-72.2c-13.4-10.2-24.8-22.9-33.7-37.2c-0.7-1.2-1.2-2.5-1.4-4c-3.5-24.2-17.5-45.6-38.2-58.4
					c-16.6-8-30.1-21.2-38.6-37.6c-0.4-0.8-0.8-1.7-1.2-2.5l-0.1-0.2l0-0.1c-5.4-11.5-8.1-24.1-8-36.8c-26.5,6-49.9,21.5-65.7,43.6
					c9.9,11.1,12.5,30.9,11.1,52.3C501.8,438.9,491.8,474.1,483.7,489.3 M440.8,513.1c9.8-10,18.2-21.3,24.8-33.6
					c7.1-13.2,15.9-44.6,17.7-72.3c1.2-17.7-0.3-33.1-6.8-38.4l0,0c-11-8.7-26.9-6.9-35.7,4c-2.9,3.6-4.7,8-5.3,12.6
					c-0.7,5.6-5.8,9.6-11.5,8.9c-4-0.5-7.3-3.3-8.5-7.1c-5-15.9-22.1-24.8-38-19.7c-7.4,2.3-13.7,7.5-17.4,14.3
					c-3.9,7.3-5.5,15.6-4.6,23.8v0.1c1.8,19.8,14.8,42.2,34.6,63.9C405.2,486,422.2,500.6,440.8,513.1L440.8,513.1z M589.8,349.1
					c6.1,9.2,14.5,16.7,24.4,21.7c5.7-14,5.4-29.7-0.8-43.4C606.9,336,598.9,343.3,589.8,349.1L589.8,349.1z M630.3,452.5
					c2.8-9.4-2.5-19.3-11.9-22.1s-19.3,2.5-22.1,11.9c-1.3,4.5-0.9,9.3,1.3,13.4c5-9.6,16.9-13.3,26.5-8.3
					C626.5,448.7,628.6,450.4,630.3,452.5z M137.3,582.9c-0.4,0-0.7,0-1.1,0c-34.5,1.9-62.5,28.5-66.1,62.9
					c0.8,9.2,9,15.9,18.2,15.1c0.5,0,0.9-0.1,1.4-0.2c2.9-0.5,5.7-1.8,7.9-3.7c1-1,2.2-1.8,3.4-2.3c5.3-2.1,11.2,0.4,13.4,5.7
					c5.2,12.9,19.9,19.1,32.7,13.9c7.1-2.9,12.5-8.8,14.7-16.2c0.6-2.2,2-4.1,3.9-5.5c4.6-3.3,11-2.2,14.3,2.4
					c5.4,7.3,15.7,8.8,22.9,3.5c5.4-4,7.8-10.8,6.1-17.3l0,0l-0.2-0.8c-6.4-34.3-36.9-58.8-71.8-57.5L137.3,582.9z M27.2,314.8
					c22.7,3.5,45.4-5.7,59.3-23.9c-15.5-5-31.1-10-46.6-15.1c-5.2,11.8-9.3,24.1-12.1,36.6L27.2,314.8z M268.7,393.7
					c9.7-14.5,5.8-34.2-8.8-43.9c-13.1-8.7-30.6-6.5-41.1,5.2C240.7,359,259.4,373.5,268.7,393.7L268.7,393.7z M638.6,489.7
					c1.5-2.4,4.7-3.2,7.1-1.7c2.4,1.5,3.2,4.7,1.7,7.1c-0.1,0.2-0.3,0.4-0.4,0.6c-7.3,10.1-16.7,18.5-27.5,24.7l-0.3,0.2
					c-10.7,6.1-22.6,10-34.8,11.3c-2.8,0.4-5.4-1.6-5.7-4.5c-0.4-2.8,1.6-5.4,4.5-5.7c0.1,0,0.1,0,0.2,0c10.9-1.2,21.3-4.6,30.8-10
					l0.2-0.1C623.8,506,632.1,498.6,638.6,489.7L638.6,489.7z M626.4,476.1c1.6-2.3,4.8-2.9,7.2-1.3c2.3,1.6,2.9,4.8,1.3,7.2l0,0
					c-7.2,10.4-16.6,19-27.5,25.3l-0.3,0.2c-10.8,6.2-22.9,9.9-35.4,11c-2.8,0.2-5.3-1.9-5.6-4.7c-0.2-2.8,1.9-5.3,4.7-5.6
					c11-0.9,21.6-4.2,31.1-9.7l0.2-0.1C611.8,492.8,620.1,485.2,626.4,476.1L626.4,476.1z M49,514.4v127h0.9
					c5.2-39.8,35.9-71.5,75.6-77.9c0.4-8.4,3-16.6,7.5-23.8c1.1-1.7,2.2-3.3,3.4-4.9C54.8,517.1-1.9,442.9,2.4,359.6
					C2.1,346.8,3,334,5.1,321.3c0-0.2,0.1-0.5,0.1-0.7c0.7-4.2,1.5-8.4,2.4-12.6c3.8-17.1,9.8-33.7,17.6-49.3
					c2.3-4.5,7.5-6.7,12.4-5.2c27,8.8,54.1,17.5,81.5,26.2c24.3,7.7,49.3,15.4,75.1,23.2c14.8-17.6,32.4-26.2,52.9-25.9
					c19.8,0.3,41.7,9.2,65.7,26.6c1.9,1.4,3.9,2.9,6,4.5c4.7-3.4,9.6-6.6,14.6-9.4c34-19.3,79,2.4,107.2,24.9
					c4.4,3.5,5.2,10,1.6,14.4c-3.5,4.4-10,5.2-14.4,1.7c-18.7-14.9-61.6-36-84.2-23.1c-6.5,3.7-12.7,7.9-18.5,12.6
					c-3.8,3.1-9.2,3-13-0.1c-3.7-3-7.5-6-11.4-8.8c-20.6-14.9-38.5-22.5-53.9-22.8c-14.3-0.2-26.8,6.2-37.5,19.3
					c-0.8,1-1.7,2.1-2.7,3.5c-2.5,3.8-7.2,5.6-11.6,4.2c-26.6-8.1-53.9-16.5-81.9-25.3l-6-1.9c-17.7,28-50.2,42.8-82.9,37.7
					c-0.8,8-1.2,16-1,24.1v1.2c-4.3,82.4,58.8,152.8,141.2,157.5c30-1.4,58.7-12.4,81.9-31.5c4.2-3.8,10.7-3.6,14.5,0.6
					s3.6,10.7-0.6,14.5c-0.3,0.3-0.6,0.5-0.9,0.7c-26.4,21.7-59.1,34.4-93.2,36.1c-10.7,3.5-18.3,12.9-19.6,24.1
					c41.1,2.8,75.1,32.9,82.9,73.3c0.5,1.8,0.8,3.7,1.1,5.5h71.4c4.8-36.7,31.4-66.9,67.3-76.2c17.1-5.1,42-27.5,56-38
					c-18.2-12.7-35-27.3-50-43.6c-22.5-24.7-37.5-51.2-39.8-75.7v-0.3c-1.1-12.6,1-24.6,7-35.5c13.5-24.6,44.4-33.6,69-20.1
					c4.7,2.6,8.9,5.8,12.6,9.7c0.5-0.7,1-1.4,1.6-2.1c10.5-12.8,27.2-19,43.6-16c2.2,0.4,4.5,1,6.6,1.7
					c21.7-30.7,55.4-50.8,92.8-55.1c5.6-1,11,2.7,12,8.3c0.2,1.2,0.2,2.5,0,3.7c-1.7,9.3-1.3,18.9,1.2,28c9.7-6.8,17.6-15.9,23-26.5
					c2.6-5,8.8-7,13.8-4.4c0,0,0,0,0,0c1.2,0.6,2.3,1.5,3.1,2.5c19.1,22.7,23.1,54.5,10.1,81.1c17.7,15.7,29.5,37,33.4,60.4
					c8.6,13.4,19.8,24.9,33,33.7c3.7,2.5,5.4,7.1,4.1,11.4c-15,51-59.2,88-112,93.7h-0.2c-41,3.7-88.6-10.7-131.3-34.2
					c-5.2-2.8-10.3-5.8-15.3-8.9l-1,0.8c-8.2,6.7-19.2,16-30.8,24.5c35.4,7.7,62.9,35.8,69.8,71.4c0.5,1.8,0.8,3.7,1.1,5.5h173.4
					v-60.1c6.3-3.9,12.3-8.2,18-13c0.9-0.7,1.7-1.5,2.6-2.2v85.6c0,5.7-4.6,10.3-10.3,10.3H478.2l0,0c-9.1,18.3-31.2,25.8-49.6,16.8
					c-0.7-0.3-1.4-0.7-2.1-1.1c-14.7,20.6-43.2,25.3-63.8,10.7c-3.8-2.7-7.1-6-9.9-9.7c-2.6,1.1-5.3,1.9-8.1,2.4
					c-14.1,2.4-28.4-3.5-36.8-15.1c-0.9-1.3-1.7-2.6-2.4-3.9h-79l0,0c-9.1,18.3-31.2,25.8-49.6,16.8c-0.7-0.3-1.4-0.7-2.1-1.1
					c-14.7,20.6-43.2,25.3-63.8,10.7c-3.8-2.7-7.1-6-9.9-9.7c-16.1,6.8-34.7,1.5-44.9-12.7c-0.9-1.3-1.7-2.6-2.5-3.9H38.7
					c-5.7,0-10.3-4.6-10.3-10.3V494.1c0.6,0.7,1.3,1.5,1.9,2.2C36.1,502.7,42.4,508.8,49,514.4z M655.3,174.4L363.5,22.2L49,174.6
					v60.6l-4.9-1.6c-5.1-1.7-10.5-2-15.7-0.9v-64.5c0-3.9,2.3-7.5,5.8-9.3L359.2,1.4c2.9-1.4,6.3-1.3,9.2,0.2l301.2,157.1
					c3.9,1.6,6.4,5.4,6.4,9.5v240.7c-2.7-5.9-5.8-11.6-9.4-17.1c-2.7-4.1-7.4-9.3-11.2-13.5L655.3,174.4z M374.6,584.9l-0.7,0.2
					c-28.3,7.4-49.1,31.6-52.1,60.7c0.9,9.2,9.1,16,18.3,15.1c3.4-0.3,6.6-1.7,9.2-3.9c4-4,10.6-4,14.6,0c1,1,1.7,2.1,2.3,3.4
					c5.2,12.9,19.8,19.1,32.7,13.9c7.1-2.9,12.5-8.8,14.7-16.2c1.6-5.4,7.3-8.6,12.8-7c2.2,0.7,4.1,2,5.5,3.9
					c5.3,7.4,15.5,9.1,22.9,3.8c5.6-4,8.1-11.1,6.3-17.7l0,0l-0.2-0.8c-7-38.2-43.7-63.4-81.9-56.4
					C377.4,584.3,375.9,584.6,374.6,584.9L374.6,584.9z"/>
			</defs>
			<clipPath id="SVGID_2_">
				<use xlink:href="#SVGID_1_"  style="overflow:visible;"/>
			</clipPath>
			<g class="st0">
				
					<linearGradient id="SVGID_3_" gradientUnits="userSpaceOnUse" x1="174.8114" y1="203.3783" x2="567.5214" y2="532.3784" gradientTransform="matrix(1 0 0 -1 0 700)">
					<stop  offset="0" style="stop-color:#BE905C"/>
					<stop  offset="1" style="stop-color:#D4AC8C"/>
				</linearGradient>
				<rect class="st1" width="703" height="697.2"/>
			</g>
		</g>
		<g class="st2">
			<path class="st3" d="M752.5,521.7l10.5-28.6l14.4-36.5c4.9-13.2,9.4-23.7,13.3-31.3c2.8-5.4,4.2-9.3,4.2-11.5
				c0-2.9-2.4-6.1-7.1-9.5c-3.2-2.1-4.7-4-4.7-5.6c0-2,3.1-4.2,9.4-6.5c5.4-2.2,11.5-4.2,18.4-5.8c6.9-1.7,12.4-2.5,16.7-2.5
				c8.5,0,14.9,2.3,19.3,6.8c5.1,5.1,11.3,21.1,18.6,48c3,10.9,6.4,21.5,10,31.6c3.7,10.2,6.7,17.5,9.1,22c0.7,1.6,2.6,4.7,5.6,9.4
				c3.3-10.6,7.3-24.5,11.8-41.6c6.7-27,12.8-45.3,18.3-54.8c1.7-3,3.7-5.7,5.9-8c4.1-3.8,8.6-6.8,13.4-8.8c4.8-2,9.6-3,14.4-3
				c2.9,0,4.9,0.8,6,2.3c1.1,1.5,1.7,4.2,1.7,8.2c0,2.9-0.2,5.1-0.6,6.5c-1,5.2-2.7,12-5.3,20.4c-2.5,8.3-6.1,19-10.7,32.1
				s-10.3,28.9-17.1,47.4l-2.3,5.6c-0.8,2.4-1.5,4.4-2.1,5.9c-12.2,34.2-21.5,56.4-27.9,66.6c-1.3,2.1-2.9,4.1-4.7,5.9
				c-3.1,3.1-6.2,4.7-9.3,4.7c-7.8,0-16.2-8.3-25.2-24.8c-16.4-29.6-29.2-60.1-38.4-91.5c-1.9-5.9-3.4-11.4-4.3-16.5h-0.6
				l-18.3,57.7c-0.2,1-0.6,2.3-1.2,3.9c-0.6,1.6-1.1,3.1-1.5,4.5c-0.4,1.1-0.9,2.4-1.4,3.7c-0.6,1.4-1,2.5-1.4,3.4
				c-3.3,10.1-6.1,17.7-8.2,22.8s-4.2,9.3-6.4,12.6c-1.8,3.1-4.5,6.5-8,10.1c-5.1,4.7-10.8,8.5-17.1,11.2
				c-6.3,2.7-12.5,4.1-18.6,4.1c-5.1,0-7.7-2.1-7.7-6.2c0-3.1,2.3-8.5,6.8-16.2c5.2-8.8,11.2-20.8,17.7-36.2
				C748.9,530.3,750.4,526.4,752.5,521.7z"/>
		</g>
		<g class="st2">
			<path class="st3" d="M1056.1,495l-1.5,6.5c-0.5,2.2-1,4.1-1.4,5.7s-0.7,2.9-1,4.1c-0.3,1.2-0.5,2.3-0.8,3.6
				c-7.3,31.1-13.1,50.5-17.6,58.3c-2,3.4-5,6.5-9.1,9.2c-12.7,8.3-22.7,12.4-30,12.4c-5,0-9.3-1.8-12.8-5.5
				c-3.5-3.7-5.2-8.3-5.2-13.7c0-9.9,4.3-28.2,13-54.8c2.6-8.5,5-15.9,7.2-22.1c2.2-6.3,4.8-13.3,7.9-21.2
				c3.1-7.9,6.6-16.2,10.4-25.1c3.9-8.9,6.6-15.1,8.2-18.7c-13.3,2-26.1,2.9-38.4,2.9c-12.4,0-18.6-4.3-18.6-13
				c0-5.5,4-12.6,12.1-21.2c5.4-5.5,10.5-9.4,15.1-11.6c4.6-2.2,10.2-3.3,16.8-3.3c4.2,0,10,0.1,17.4,0.4c7.4,0.3,17.6,0.8,30.7,1.7
				l4.2,0.3l4.1,0.5c11.1,0.6,18.4,1.3,21.9,2.1c3.5,0.8,6.6,2.4,9.1,4.7c2,2.3,3,5,3,8c0,3.2-0.6,6.5-1.9,9.9
				c-1.3,3.4-2.8,5.9-4.6,7.5c-2.5,2.8-9.6,5.2-21.3,7.1c-1,0-2.1,0.1-3.2,0.3l-3,0.6c2.4,2.4,3.6,5.1,3.6,8c0,2.8-1.4,8.9-4.2,18.3
				c-0.9,2.3-3.1,10-6.5,22.9l-2.3,9.1L1056.1,495z"/>
			<linearGradient id="SVGID_4_" gradientUnits="userSpaceOnUse" x1="1111.5566" y1="488.8843" x2="1284.2324" y2="488.8843">
				<stop  offset="0" style="stop-color:#523642"/>
				<stop  offset="1" style="stop-color:#D4AC8C"/>
			</linearGradient>
			<path class="st4" d="M1160.6,420.3l2.1-5.3c-3.3,0-6.2,0.3-8.5,0.8c-2.3,0.6-5,1.4-8.2,2.6c-3.8,1.4-6.5,2.1-7.9,2.1
				c-1.7,0-3.1-0.7-4.2-2c-1.1-1.3-1.7-2.9-1.7-4.8c0-3.9,1.6-8,4.8-12.2c3.2-4.2,7.1-7.1,11.7-8.9c6.1-2.4,13.8-4.4,23.4-5.8
				c9.5-1.5,19-2.2,28.4-2.2c10.6,0,20.1,0.8,28.5,2.3c8.4,1.5,15.9,3.9,22.5,7.3c6.6,3.3,12.3,7.5,17.3,12.4
				c4.9,4.9,8.8,10.7,11.4,17.3c2.7,6.6,4,13.5,4,20.9c0,6.7-1.3,14.1-4,22.4c-2.7,8.3-6.4,16.3-11.1,24.2
				c-4.7,7.9-9.9,14.5-15.6,20c-6.6,6.4-14.9,11.7-24.9,16.1c-10,4.4-19.2,6.6-27.5,6.6c-3.5,0-6.6-0.6-9.3-1.9
				c-2.7-1.3-4-2.8-4-4.6c0-2.8,1.1-5.5,3.2-7.9c2.1-2.5,6-5.5,11.7-9.2c4.8-2.8,9.4-6.2,13.6-10.1c5-5.5,8.8-11.5,11.1-17.7
				c2.4-6.3,3.6-13.7,3.6-22.4c0-8.3-1.4-15.3-4.2-21c-2.8-5.8-7.4-10.9-13.8-15.4l-20.7,67.2l-3.8,11.8c-1.6,4.6-3.8,12.6-6.5,23.9
				c-4.9,19.5-9.6,33-13.9,40.6c-1.9,3.3-4.4,6.6-7.4,9.8c-4.8,4.2-11,7.9-18.4,11.1s-13.8,4.8-19.1,4.8c-3.5,0-6.3-1-8.4-3.1
				c-2.1-2.1-3.1-5-3.1-8.7c0-4.1,1-10.2,3.1-18.2c2.1-8,6.3-22.2,12.8-42.8l2.7-8.5l2.9-9.2L1160.6,420.3z"/>
			<linearGradient id="SVGID_5_" gradientUnits="userSpaceOnUse" x1="1297.7021" y1="489.7925" x2="1475.2217" y2="489.7925">
				<stop  offset="0" style="stop-color:#BE905C"/>
				<stop  offset="1" style="stop-color:#D4AC8C"/>
			</linearGradient>
			<path class="st5" d="M1421.3,525.1l-55.2-0.3v3.8c0,7.4,2.1,14.1,6.4,20.1c4.2,6,8.9,9,14.1,9c5.2,0,12.8-1.9,22.8-5.8
				c9.9-3.8,21.3-9.3,34-16.5l5.3-3.2c3.6-2,6.1-3.5,7.4-4.5c6-3.7,9.7-5.6,11.2-5.6c1.8,0,2.7,1.7,2.7,5c0,3.6-0.7,7.8-2,12.4
				c-1.3,4.6-3,9.1-5,13.4c-2,4.3-4,7.3-6.1,9.2c-5.8,5.1-15.6,10.7-29.5,16.8s-28,10.8-42.4,14.2c-4.8,1-9.3,1.5-13.3,1.5
				c-13.8,0-26.5-2.8-37.9-8.4c-11.5-5.6-20.3-13.3-26.6-23.1c-6.3-9.8-9.5-20.7-9.5-32.7c0-9.9,2.1-20.8,6.2-32.7
				c4.1-11.9,9.9-23.8,17.4-35.6c7.5-11.9,15.9-22.6,25.3-32.3c8.2-8.5,17.3-16.2,27.4-23.1c10.1-6.9,19.9-12.2,29.4-16
				c9.5-3.7,18.3-5.6,26.3-5.6c12.5,0,23.2,3.6,32.2,10.7c8.9,7.1,13.4,15.7,13.4,25.8c0,4.4-0.8,9.3-2.4,14.5
				c-1.6,5.2-3.8,9.8-6.5,13.8c-2.8,4.2-7,8.4-12.6,12.4c-5.5,4-11.8,7.5-18.8,10.4c-8.4,3.3-15.5,5-21.5,5c-6,0-8.9-1.5-8.9-4.4
				c0-1.7,1.7-4.4,5-8c3.6-3.2,7.1-7.7,10.4-13.3c3.2-6,6.1-13,8.5-21c2.4-8.1,3.6-14.4,3.6-18.9c0-3.7-1.1-5.6-3.3-5.6
				c-3.5,0-9.9,3.9-19.1,11.7c-9.2,7.8-16.4,15.4-21.8,23c-5,7.1-9.2,14.3-12.4,21.6c-3.2,7.3-5.4,14.5-6.5,21.6h80.8
				c8.9,0,13.3,2.3,13.3,6.8c0,4.2-4.9,11.1-14.8,20.7C1438.5,520.6,1429.5,525.1,1421.3,525.1z"/>
			<linearGradient id="SVGID_6_" gradientUnits="userSpaceOnUse" x1="1486.7236" y1="491.1548" x2="1621.2627" y2="491.1548">
				<stop  offset="0" style="stop-color:#BE905C"/>
				<stop  offset="1" style="stop-color:#D4AC8C"/>
			</linearGradient>
			<path class="st6" d="M1576.4,495l-1.5,6.5c-0.5,2.2-1,4.1-1.4,5.7s-0.7,2.9-1,4.1c-0.3,1.2-0.5,2.3-0.8,3.6
				c-7.3,31.1-13.1,50.5-17.6,58.3c-2,3.4-5,6.5-9.1,9.2c-12.7,8.3-22.7,12.4-30,12.4c-5,0-9.3-1.8-12.8-5.5
				c-3.5-3.7-5.2-8.3-5.2-13.7c0-9.9,4.3-28.2,13-54.8c2.6-8.5,5-15.9,7.2-22.1c2.2-6.3,4.8-13.3,7.9-21.2
				c3.1-7.9,6.6-16.2,10.4-25.1c3.9-8.9,6.6-15.1,8.2-18.7c-13.3,2-26.1,2.9-38.4,2.9c-12.4,0-18.6-4.3-18.6-13
				c0-5.5,4-12.6,12.1-21.2c5.4-5.5,10.5-9.4,15.1-11.6c4.6-2.2,10.2-3.3,16.8-3.3c4.2,0,10,0.1,17.4,0.4c7.4,0.3,17.6,0.8,30.7,1.7
				l4.2,0.3l4.1,0.5c11.1,0.6,18.4,1.3,21.9,2.1c3.5,0.8,6.6,2.4,9.1,4.7c2,2.3,3,5,3,8c0,3.2-0.6,6.5-1.9,9.9
				c-1.3,3.4-2.8,5.9-4.6,7.5c-2.5,2.8-9.6,5.2-21.3,7.1c-1,0-2.1,0.1-3.2,0.3l-3,0.6c2.4,2.4,3.6,5.1,3.6,8c0,2.8-1.4,8.9-4.2,18.3
				c-0.9,2.3-3.1,10-6.5,22.9l-2.3,9.1L1576.4,495z"/>
		</g>
	</g>
</g>
</svg>
